<svg width="158" height="63" viewBox="0 0 158 63" fill="none" xmlns="http://www.w3.org/2000/svg">
<path d="M65.87 63C62.7413 63 59.9225 62.2257 57.4139 60.6771C54.877 59.1285 52.8335 57.045 51.2832 54.4264C49.7611 51.8079 49 48.8797 49 45.6417V18.2316C49 15.0781 49.7751 12.2062 51.3254 9.6158C52.8475 6.99727 54.8911 4.91371 57.4562 3.36512C60.0212 1.78837 62.8258 1 65.87 1C69.0552 1 71.9303 1.76021 74.4953 3.28065C77.0604 4.82924 79.0899 6.89873 80.5838 9.4891C82.1059 12.0795 82.8669 14.9936 82.8669 18.2316V22.2016C82.8669 22.4269 82.726 22.5395 82.4441 22.5395H72.7196C72.4941 22.5395 72.3813 22.4269 72.3813 22.2016V18.9074C72.3813 16.7112 71.7612 14.8951 70.5209 13.4591C69.2807 12.0232 67.7304 11.3052 65.87 11.3052C64.207 11.3052 62.7272 11.995 61.4306 13.3747C60.134 14.7543 59.4856 16.3733 59.4856 18.2316V45.6417C59.4856 47.5282 60.1199 49.1612 61.3883 50.5409C62.6567 51.8924 64.1506 52.5681 65.87 52.5681C67.7304 52.5681 69.2807 51.9065 70.5209 50.5831C71.7612 49.2316 72.3813 47.5845 72.3813 45.6417V41.376H66.3351C66.0251 41.376 65.87 41.2352 65.87 40.9537V31.282C65.87 31.0005 66.0251 30.8597 66.3351 30.8597H82.5287C82.7542 30.8597 82.8669 31.0005 82.8669 31.282V45.6417C82.8669 48.8797 82.1059 51.8079 80.5838 54.4264C79.0335 57.045 76.9899 59.1285 74.4531 60.6771C71.9162 62.2257 69.0552 63 65.87 63Z" fill="#DFFF50"/>
<path d="M117.326 62.1553H89.3359C89.1104 62.1553 88.9977 62.0145 88.9977 61.733L89.0822 2.30926C89.0822 2.08401 89.195 1.97139 89.4205 1.97139H117.241C117.467 1.97139 117.58 2.11217 117.58 2.39373V12.0654C117.58 12.2906 117.467 12.4033 117.241 12.4033H99.4833V25.9183H117.241C117.467 25.9183 117.58 26.0309 117.58 26.2561L117.664 36.0545C117.664 36.2797 117.551 36.3924 117.326 36.3924H99.4833V51.5123H117.326C117.551 51.5123 117.664 51.653 117.664 51.9346V61.8174C117.664 62.0427 117.551 62.1553 117.326 62.1553Z" fill="#DFFF50"/>
<path d="M134.788 62.1553H126.12C125.669 62.1553 125.444 61.9582 125.444 61.564L125.359 2.64713C125.359 2.19663 125.585 1.97139 126.036 1.97139H133.858L148.487 36.0545L148.064 2.64713C148.064 2.19663 148.318 1.97139 148.825 1.97139H157.408C157.746 1.97139 157.915 2.19663 157.915 2.64713L158 61.6485C158 61.9864 157.859 62.1553 157.577 62.1553H149.967L134.957 30.3106L135.591 61.4796C135.591 61.9301 135.323 62.1553 134.788 62.1553Z" fill="#DFFF50"/>
<rect width="42" height="63" fill="#DFFF50"/>
</svg>
